# xmcd
#
# Track frame offsets: 
#        150
#        12115
#        27940
#        43385
#        61612
#        77135
#        92085
#        110057
#        125785
#        140480
#        155020
#        180607
#        191912
#        208557
#        224665
#        241810
#
# Disc length: 3563 seconds
#
# Revision: 4
# Processed by: cddbd v1.5.1PL0 Copyright (c) Steve Scherf et al.
# Submitted via: ExactAudioCopy v0.95a5
#
DISCID=eb0de910
DTITLE=Various Artist - Country Heat 1998
DYEAR=1998
DGENRE=Country
TTITLE0=Alan Jackson - Little Bitty
TTITLE1=Diamond Rio - Imagine That
TTITLE2=Kenny Chesney - She´s got it all
TTITLE3=The Thompson Brothers Band - Back on the farm
TTITLE4=Martina McBride - Independence Day
TTITLE5=Michelle Wright - What Love Looks Like
TTITLE6=Clint Black - Half Way Up
TTITLE7=Sherrie Austin - Lucky In Love
TTITLE8=Brooks and Dunn - Honky Tonk Truth
TTITLE9=Mindy McCready - Guys Do It All The Time
TTITLE10=Prairie Oyster - One Way Track
TTITLE11=Julian Austin - Little Ol´ Kisses
TTITLE12=Charlie Major - I´m Feeling Kind Of Lucky Tonight
TTITLE13=Pam Tillis - Land Of The Living
TTITLE14=Vince Gill - Pretty Little Adriana
TTITLE15=Bob Carlisle - Butterfly Kisses (The Country Remix)
EXTD=YEAR: 1998
EXTT0=
EXTT1=
EXTT2=
EXTT3=
EXTT4=
EXTT5=
EXTT6=
EXTT7=
EXTT8=
EXTT9=
EXTT10=
EXTT11=
EXTT12=
EXTT13=
EXTT14=
EXTT15=
PLAYORDER=
